<?xml version="1.0" encoding="UTF-8" standalone="no"?>
<svg id="svg3058" xmlns:rdf="http://www.w3.org/1999/02/22-rdf-syntax-ns#" style="enable-background:new" xmlns="http://www.w3.org/2000/svg" height="1280" width="1800" version="1.1" xmlns:cc="http://creativecommons.org/ns#" xmlns:dc="http://purl.org/dc/elements/1.1/">
 <g id="laptop" transform="matrix(1.0179 0 0 1.0179 -95.029 -16.885)">
  <rect id="basis" ry="33.397" height="1015.7" width="1408.8" y="258.4" x="254.63" fill="#ccc"/>
  <g id="keyboard">
   <rect id="rect4100" ry="26.799" height="487.3" width="1256.2" y="449.51" x="331.22" fill="#e6e6e6"/>
   <rect id="rect3081" ry="7.8855" height="43.699" width="66.041" y="477.32" x="358.13"/>
   <rect id="rect3851" ry="7.8855" height="43.699" width="66.041" y="477.32" x="429.01"/>
   <rect id="rect3853" ry="7.8855" height="43.699" width="66.041" y="477.32" x="499.88"/>
   <rect id="rect3855" ry="7.8855" height="43.699" width="66.041" y="477.32" x="570.76"/>
   <rect id="rect3857" ry="7.8855" height="43.699" width="66.041" y="477.32" x="641.63"/>
   <rect id="rect3859" ry="7.8855" height="43.699" width="66.041" y="477.32" x="712.51"/>
   <rect id="rect3861" ry="7.8855" height="43.699" width="66.041" y="477.32" x="783.38"/>
   <rect id="rect3863" ry="7.8855" height="43.699" width="66.041" y="477.32" x="854.26"/>
   <rect id="rect3865" ry="7.8855" height="43.699" width="66.041" y="477.32" x="925.13"/>
   <rect id="rect3867" ry="7.8855" height="43.699" width="66.041" y="477.32" x="996.01"/>
   <rect id="rect3869" ry="7.8855" height="43.699" width="66.041" y="477.32" x="1066.9"/>
   <rect id="rect3871" ry="7.8855" height="43.699" width="66.041" y="477.32" x="1137.8"/>
   <rect id="rect3873" ry="7.8855" height="43.699" width="66.041" y="477.32" x="1208.6"/>
   <rect id="rect3875" ry="7.8855" height="43.699" width="66.041" y="477.32" x="1279.5"/>
   <rect id="rect3877" ry="7.8855" height="43.699" width="66.041" y="477.32" x="1350.4"/>
   <rect id="rect3879" ry="7.8855" height="43.699" width="66.041" y="477.32" x="1421.3"/>
   <rect id="rect3881" ry="7.8855" height="43.699" width="66.041" y="477.32" x="1492.1"/>
   <rect id="rect3921" ry="7.8855" height="65.549" width="65.384" y="531.2" x="358.13"/>
   <rect id="rect3923" ry="7.8855" height="65.549" width="65.384" y="531.2" x="435.11"/>
   <rect id="rect3925" ry="7.8855" height="65.549" width="65.384" y="531.2" x="512.09"/>
   <rect id="rect3927" ry="7.8855" height="65.549" width="65.384" y="531.2" x="589.06"/>
   <rect id="rect3929" ry="7.8855" height="65.549" width="65.384" y="531.2" x="666.04"/>
   <rect id="rect3931" ry="7.8855" height="65.549" width="65.384" y="531.2" x="743.01"/>
   <rect id="rect3933" ry="7.8855" height="65.549" width="65.384" y="531.2" x="819.99"/>
   <rect id="rect3935" ry="7.8855" height="65.549" width="65.384" y="531.2" x="896.97"/>
   <rect id="rect3937" ry="7.8855" height="65.549" width="65.384" y="531.2" x="973.94"/>
   <rect id="rect3939" ry="7.8855" height="65.549" width="65.384" y="531.2" x="1050.9"/>
   <rect id="rect3941" ry="7.8855" height="65.549" width="65.384" y="531.2" x="1127.9"/>
   <rect id="rect3943" ry="7.8855" height="65.549" width="65.384" y="531.2" x="1204.9"/>
   <rect id="rect3945" ry="7.8855" height="65.549" width="65.384" y="531.2" x="1281.8"/>
   <rect id="rect3969" ry="7.8855" height="65.549" width="65.384" y="606.12" x="474.34"/>
   <rect id="rect3971" ry="7.8855" height="65.549" width="65.384" y="606.12" x="551.16"/>
   <rect id="rect3973" ry="7.8855" height="65.549" width="65.384" y="606.12" x="627.99"/>
   <rect id="rect3975" ry="7.8855" height="65.549" width="65.384" y="606.12" x="704.82"/>
   <rect id="rect3977" ry="7.8855" height="65.549" width="65.384" y="606.12" x="781.65"/>
   <rect id="rect3979" ry="7.8855" height="65.549" width="65.384" y="606.12" x="858.48"/>
   <rect id="rect3981" ry="7.8855" height="65.549" width="65.384" y="606.12" x="935.31"/>
   <rect id="rect3983" ry="7.8855" height="65.549" width="65.384" y="606.12" x="1012.1"/>
   <rect id="rect3985" ry="7.8855" height="65.549" width="65.384" y="606.12" x="1089"/>
   <rect id="rect3987" ry="7.8855" height="65.549" width="65.384" y="606.12" x="1165.8"/>
   <rect id="rect3989" ry="7.8855" height="65.549" width="65.384" y="606.12" x="1242.6"/>
   <rect id="rect3991" ry="7.8855" height="65.549" width="65.384" y="606.12" x="1319.5"/>
   <rect id="rect3993" ry="7.8855" height="65.549" width="85.365" y="606.12" x="1396.3"/>
   <rect id="rect3995" ry="7.8855" height="65.549" width="65.384" y="681.03" x="492.15"/>
   <rect id="rect3997" ry="7.8855" height="65.549" width="65.384" y="681.03" x="569.13"/>
   <rect id="rect3999" ry="7.8855" height="65.549" width="65.384" y="681.03" x="646.12"/>
   <rect id="rect4001" ry="7.8855" height="65.549" width="65.384" y="681.03" x="723.11"/>
   <rect id="rect4003" ry="7.8855" height="65.549" width="65.384" y="681.03" x="800.09"/>
   <rect id="rect4005" ry="7.8855" height="65.549" width="65.384" y="681.03" x="877.08"/>
   <rect id="rect4007" ry="7.8855" height="65.549" width="65.384" y="681.03" x="954.06"/>
   <rect id="rect4009" ry="7.8855" height="65.549" width="65.384" y="681.03" x="1031"/>
   <rect id="rect4011" ry="7.8855" height="65.549" width="65.384" y="681.03" x="1108"/>
   <rect id="rect4013" ry="7.8855" height="65.549" width="65.384" y="681.03" x="1185"/>
   <rect id="rect4015" ry="7.8855" height="65.549" width="65.384" y="681.03" x="1262"/>
   <rect id="rect4017" ry="7.8855" height="65.549" width="143.45" y="681.03" x="1339"/>
   <rect id="rect4019" ry="7.8855" height="65.549" width="65.384" y="604.19" x="1493.1"/>
   <rect id="rect4021" ry="7.8855" height="65.549" width="65.384" y="758.57" x="530.63"/>
   <rect id="rect4023" ry="7.8855" height="65.549" width="65.384" y="758.57" x="607.53"/>
   <rect id="rect4025" ry="7.8855" height="65.549" width="65.384" y="758.57" x="684.43"/>
   <rect id="rect4027" ry="7.8855" height="65.549" width="65.384" y="758.57" x="761.34"/>
   <rect id="rect4029" ry="7.8855" height="65.549" width="65.384" y="758.57" x="838.24"/>
   <rect id="rect4031" ry="7.8855" height="65.549" width="65.384" y="758.57" x="915.14"/>
   <rect id="rect4033" ry="7.8855" height="65.549" width="65.384" y="758.57" x="992.04"/>
   <rect id="rect4035" ry="7.8855" height="65.549" width="65.384" y="758.57" x="1068.9"/>
   <rect id="rect4037" ry="7.8855" height="65.549" width="65.384" y="758.57" x="1145.8"/>
   <rect id="rect4039" ry="7.8855" height="65.549" width="65.384" y="758.57" x="1222.7"/>
   <rect id="rect4041" ry="7.8855" height="65.549" width="106.27" y="758.57" x="1299.6"/>
   <rect id="rect4043" ry="7.8855" height="65.549" width="65.384" y="757.6" x="1494.3"/>
   <rect id="rect4045" ry="7.8855" height="65.549" width="65.384" y="680.9" x="1494"/>
   <rect id="rect4047" ry="7.8855" height="65.549" width="65.384" y="527.49" x="1493.4"/>
   <rect id="rect4049" ry="7.8855" height="65.549" width="123" y="528.41" x="1358.8"/>
   <rect id="rect4051" ry="7.8855" height="65.549" width="65.384" y="757.17" x="1417.4"/>
   <rect id="rect4053" ry="7.8855" height="65.549" width="65.384" y="834.31" x="1341.1"/>
   <rect id="rect4055" ry="7.8855" height="65.549" width="65.384" y="834.31" x="1418"/>
   <rect id="rect4057" ry="7.8855" height="65.549" width="65.384" y="834.31" x="1494.9"/>
   <rect id="rect4059" ry="7.8855" height="65.549" width="106.27" y="834.31" x="1223.2"/>
   <rect id="rect4061" ry="7.8855" height="65.549" width="65.384" y="835.24" x="1069.4"/>
   <rect id="rect4063" ry="7.8855" height="65.549" width="65.384" y="835.24" x="1146.3"/>
   <rect id="rect4065" ry="7.8855" height="65.549" width="105.81" y="607.04" x="357.08"/>
   <rect id="rect4067" ry="7.8855" height="65.549" width="125.33" y="683.71" x="355.22"/>
   <rect id="rect4069" ry="7.8855" height="65.549" width="162.5" y="758.99" x="356.62"/>
   <rect id="rect4071" ry="7.8855" height="65.549" width="374.09" y="835.66" x="683.71"/>
   <rect id="rect4073" ry="7.8855" height="65.549" width="65.384" y="835.7" x="452.89"/>
   <rect id="rect4075" ry="7.8855" height="65.549" width="65.384" y="835.7" x="529.83"/>
   <rect id="rect4077" ry="7.8855" height="65.549" width="65.384" y="835.7" x="606.77"/>
   <rect id="rect4079" ry="7.8855" height="65.549" width="84.435" y="835.7" x="356.9"/>
  </g>
  <rect id="button" ry="5.4213" height="32.856" width="65.713" y="390.25" x="358.13" fill="#9c9a9b"/>
  <rect id="rect4098" opacity="0.99" ry="15.438" height="249.99" width="427.49" y="977.11" x="645.41" fill="#676767"/>
  <rect id="touchpad" ry="15.438" height="249.99" width="427.49" y="976.11" x="645.41" fill="#b3b3b3"/>
  <path id="monitor" d="m113.84 16.59h1728.7c15.565-0.0935 21.853 5.7169 18.143 17.889l-205.6 226.64c-4.609 2.8451-10.399 4.0185-18.071 3.6142h-25.299v39.099c-0.6874 2.8108-1.0946 5.7684-6.2427 6.2427h-69.263v-49.942c-0.1997-4.5326 0.4505-8.3074-2.6575-8.2388h-1152c-2.6459 0.80854-3.3023 1.3579-3.4919 7.386l3.4118 8.9275 0.23233 41.21c-0.23572 2.4845-1.4018 4.5425-5.3331 5.3331 0 0-61.75 0.28414-66.117 0-3.7943-0.24683-5.4571-1.2232-5.4594-5.4594-0.003-6.1912 0-41.273 0-41.273h-33.311c-4.1437-0.1084-7.8166-1.6609-10.407-3.6597l-164.32-222.39c-5.733-16.512 0.909-24.414 17.24-25.38z"/>
  <path id="screen" d="m203.71 59.056h1536.4c12.829-1.5477 10.937 2.6121 4.8491 8.3988l-133.6 159.16-1297.9 0.24-111-164.52c-1.9009-2.9664 0.36918-2.596 1.3143-3.2856z" fill="#162d50"/>
  <path id="path4094" d="m93.861 417.59 15.799-26.95" stroke="#000" stroke-width="1px" fill="none"/>
  <path id="path4096" d="m386.6 267.97 1150.2-2.9571-0.668 73.157c-0.9428 7.4403-4.9062 13.512-13.8 14.539l-1124.6 4.0249c-11.951 1.7157-16.095-6.5545-17.63-13.085v-75.956z" fill="#1a1a1a"/>
 </g>
</svg>
